<mxfile host="app.diagrams.net" modified="2023-10-23T04:53:13.254Z" agent="Mozilla/5.0 (Windows NT 10.0; Win64; x64) AppleWebKit/537.36 (KHTML, like Gecko) Chrome/118.0.0.0 Safari/537.36" etag="RiqUvrF7ZHN2s7hkpmKy" version="22.0.6" type="device">
  <diagram name="Page-1" id="cYl3c6fM6LqxUCs3lVt7">
    <mxGraphModel dx="1288" dy="577" grid="1" gridSize="10" guides="1" tooltips="1" connect="1" arrows="1" fold="1" page="1" pageScale="1" pageWidth="827" pageHeight="1169" math="0" shadow="0">
      <root>
        <mxCell id="0" />
        <mxCell id="1" parent="0" />
        <mxCell id="lP1PYulOQ80jgyvr0Ed0-2" style="edgeStyle=orthogonalEdgeStyle;rounded=0;orthogonalLoop=1;jettySize=auto;html=1;exitX=0.5;exitY=1;exitDx=0;exitDy=0;" edge="1" parent="1" source="lP1PYulOQ80jgyvr0Ed0-1" target="lP1PYulOQ80jgyvr0Ed0-3">
          <mxGeometry relative="1" as="geometry">
            <mxPoint x="95" y="120" as="targetPoint" />
          </mxGeometry>
        </mxCell>
        <object label="Start" id="lP1PYulOQ80jgyvr0Ed0-1">
          <mxCell style="ellipse;whiteSpace=wrap;html=1;" vertex="1" parent="1">
            <mxGeometry x="40" y="10" width="110" height="70" as="geometry" />
          </mxCell>
        </object>
        <mxCell id="lP1PYulOQ80jgyvr0Ed0-4" style="edgeStyle=orthogonalEdgeStyle;rounded=0;orthogonalLoop=1;jettySize=auto;html=1;" edge="1" parent="1" source="lP1PYulOQ80jgyvr0Ed0-3" target="lP1PYulOQ80jgyvr0Ed0-5">
          <mxGeometry relative="1" as="geometry">
            <mxPoint x="95" y="240" as="targetPoint" />
          </mxGeometry>
        </mxCell>
        <mxCell id="lP1PYulOQ80jgyvr0Ed0-3" value="input num" style="shape=parallelogram;perimeter=parallelogramPerimeter;whiteSpace=wrap;html=1;fixedSize=1;" vertex="1" parent="1">
          <mxGeometry x="35" y="130" width="120" height="60" as="geometry" />
        </mxCell>
        <mxCell id="lP1PYulOQ80jgyvr0Ed0-7" style="edgeStyle=orthogonalEdgeStyle;rounded=0;orthogonalLoop=1;jettySize=auto;html=1;exitX=1;exitY=0.5;exitDx=0;exitDy=0;entryX=0;entryY=0.5;entryDx=0;entryDy=0;" edge="1" parent="1" source="lP1PYulOQ80jgyvr0Ed0-5" target="lP1PYulOQ80jgyvr0Ed0-6">
          <mxGeometry relative="1" as="geometry" />
        </mxCell>
        <mxCell id="lP1PYulOQ80jgyvr0Ed0-5" value="input bitNum[array ]" style="shape=parallelogram;perimeter=parallelogramPerimeter;whiteSpace=wrap;html=1;fixedSize=1;" vertex="1" parent="1">
          <mxGeometry x="27.5" y="240" width="135" height="60" as="geometry" />
        </mxCell>
        <mxCell id="lP1PYulOQ80jgyvr0Ed0-8" style="edgeStyle=orthogonalEdgeStyle;rounded=0;orthogonalLoop=1;jettySize=auto;html=1;entryX=0.459;entryY=1.017;entryDx=0;entryDy=0;entryPerimeter=0;" edge="1" parent="1" source="lP1PYulOQ80jgyvr0Ed0-6" target="lP1PYulOQ80jgyvr0Ed0-5">
          <mxGeometry relative="1" as="geometry">
            <mxPoint x="210" y="400" as="targetPoint" />
            <Array as="points">
              <mxPoint x="245" y="360" />
              <mxPoint x="90" y="360" />
            </Array>
          </mxGeometry>
        </mxCell>
        <mxCell id="lP1PYulOQ80jgyvr0Ed0-9" value="False" style="edgeLabel;html=1;align=center;verticalAlign=middle;resizable=0;points=[];" vertex="1" connectable="0" parent="lP1PYulOQ80jgyvr0Ed0-8">
          <mxGeometry x="-0.2252" y="-2" relative="1" as="geometry">
            <mxPoint as="offset" />
          </mxGeometry>
        </mxCell>
        <mxCell id="lP1PYulOQ80jgyvr0Ed0-10" style="edgeStyle=orthogonalEdgeStyle;rounded=0;orthogonalLoop=1;jettySize=auto;html=1;" edge="1" parent="1" source="lP1PYulOQ80jgyvr0Ed0-6">
          <mxGeometry relative="1" as="geometry">
            <mxPoint x="360" y="270.0000000000001" as="targetPoint" />
          </mxGeometry>
        </mxCell>
        <mxCell id="lP1PYulOQ80jgyvr0Ed0-11" value="True" style="edgeLabel;html=1;align=center;verticalAlign=middle;resizable=0;points=[];" vertex="1" connectable="0" parent="lP1PYulOQ80jgyvr0Ed0-10">
          <mxGeometry x="-0.2018" y="3" relative="1" as="geometry">
            <mxPoint as="offset" />
          </mxGeometry>
        </mxCell>
        <mxCell id="lP1PYulOQ80jgyvr0Ed0-6" value="bitNum == -1" style="rhombus;whiteSpace=wrap;html=1;" vertex="1" parent="1">
          <mxGeometry x="200" y="230" width="90" height="80" as="geometry" />
        </mxCell>
        <mxCell id="lP1PYulOQ80jgyvr0Ed0-13" style="edgeStyle=orthogonalEdgeStyle;rounded=0;orthogonalLoop=1;jettySize=auto;html=1;" edge="1" parent="1" source="lP1PYulOQ80jgyvr0Ed0-12">
          <mxGeometry relative="1" as="geometry">
            <mxPoint x="510" y="270.0000000000001" as="targetPoint" />
          </mxGeometry>
        </mxCell>
        <mxCell id="lP1PYulOQ80jgyvr0Ed0-12" value="int i = 0" style="rounded=0;whiteSpace=wrap;html=1;" vertex="1" parent="1">
          <mxGeometry x="360" y="250" width="90" height="40" as="geometry" />
        </mxCell>
        <mxCell id="lP1PYulOQ80jgyvr0Ed0-16" style="edgeStyle=orthogonalEdgeStyle;rounded=0;orthogonalLoop=1;jettySize=auto;html=1;" edge="1" parent="1" source="lP1PYulOQ80jgyvr0Ed0-15" target="lP1PYulOQ80jgyvr0Ed0-17">
          <mxGeometry relative="1" as="geometry">
            <mxPoint x="640" y="180" as="targetPoint" />
            <Array as="points">
              <mxPoint x="630" y="270" />
            </Array>
          </mxGeometry>
        </mxCell>
        <mxCell id="lP1PYulOQ80jgyvr0Ed0-19" value="True" style="edgeLabel;html=1;align=center;verticalAlign=middle;resizable=0;points=[];" vertex="1" connectable="0" parent="lP1PYulOQ80jgyvr0Ed0-16">
          <mxGeometry x="-0.2945" y="2" relative="1" as="geometry">
            <mxPoint as="offset" />
          </mxGeometry>
        </mxCell>
        <mxCell id="lP1PYulOQ80jgyvr0Ed0-20" style="edgeStyle=orthogonalEdgeStyle;rounded=0;orthogonalLoop=1;jettySize=auto;html=1;" edge="1" parent="1" source="lP1PYulOQ80jgyvr0Ed0-15" target="lP1PYulOQ80jgyvr0Ed0-21">
          <mxGeometry relative="1" as="geometry">
            <mxPoint x="560" y="390.0000000000001" as="targetPoint" />
          </mxGeometry>
        </mxCell>
        <mxCell id="lP1PYulOQ80jgyvr0Ed0-26" value="False" style="edgeLabel;html=1;align=center;verticalAlign=middle;resizable=0;points=[];" vertex="1" connectable="0" parent="lP1PYulOQ80jgyvr0Ed0-20">
          <mxGeometry x="-0.5038" y="-1" relative="1" as="geometry">
            <mxPoint as="offset" />
          </mxGeometry>
        </mxCell>
        <mxCell id="lP1PYulOQ80jgyvr0Ed0-15" value="num &amp;gt;= 2 ^ i" style="rhombus;whiteSpace=wrap;html=1;direction=south;" vertex="1" parent="1">
          <mxGeometry x="510" y="220" width="100" height="100" as="geometry" />
        </mxCell>
        <mxCell id="lP1PYulOQ80jgyvr0Ed0-18" style="edgeStyle=orthogonalEdgeStyle;rounded=0;orthogonalLoop=1;jettySize=auto;html=1;exitX=0;exitY=0.5;exitDx=0;exitDy=0;entryX=0;entryY=0.5;entryDx=0;entryDy=0;" edge="1" parent="1" source="lP1PYulOQ80jgyvr0Ed0-17" target="lP1PYulOQ80jgyvr0Ed0-15">
          <mxGeometry relative="1" as="geometry" />
        </mxCell>
        <mxCell id="lP1PYulOQ80jgyvr0Ed0-17" value="i ++" style="whiteSpace=wrap;html=1;aspect=fixed;" vertex="1" parent="1">
          <mxGeometry x="610" y="170" width="50" height="50" as="geometry" />
        </mxCell>
        <mxCell id="lP1PYulOQ80jgyvr0Ed0-22" style="edgeStyle=orthogonalEdgeStyle;rounded=0;orthogonalLoop=1;jettySize=auto;html=1;" edge="1" parent="1" source="lP1PYulOQ80jgyvr0Ed0-21" target="lP1PYulOQ80jgyvr0Ed0-23">
          <mxGeometry relative="1" as="geometry">
            <mxPoint x="560" y="470" as="targetPoint" />
          </mxGeometry>
        </mxCell>
        <mxCell id="lP1PYulOQ80jgyvr0Ed0-21" value="int numBinary = 0&lt;br&gt;i --" style="rounded=0;whiteSpace=wrap;html=1;" vertex="1" parent="1">
          <mxGeometry x="500" y="360.0000000000001" width="120" height="60" as="geometry" />
        </mxCell>
        <mxCell id="lP1PYulOQ80jgyvr0Ed0-24" style="edgeStyle=orthogonalEdgeStyle;rounded=0;orthogonalLoop=1;jettySize=auto;html=1;exitX=0.5;exitY=1;exitDx=0;exitDy=0;" edge="1" parent="1" source="lP1PYulOQ80jgyvr0Ed0-23" target="lP1PYulOQ80jgyvr0Ed0-25">
          <mxGeometry relative="1" as="geometry">
            <mxPoint x="680" y="549.9230769230769" as="targetPoint" />
            <Array as="points">
              <mxPoint x="560" y="510" />
            </Array>
          </mxGeometry>
        </mxCell>
        <mxCell id="lP1PYulOQ80jgyvr0Ed0-36" value="False" style="edgeLabel;html=1;align=center;verticalAlign=middle;resizable=0;points=[];" vertex="1" connectable="0" parent="lP1PYulOQ80jgyvr0Ed0-24">
          <mxGeometry x="0.3019" y="1" relative="1" as="geometry">
            <mxPoint as="offset" />
          </mxGeometry>
        </mxCell>
        <mxCell id="lP1PYulOQ80jgyvr0Ed0-37" style="edgeStyle=orthogonalEdgeStyle;rounded=0;orthogonalLoop=1;jettySize=auto;html=1;" edge="1" parent="1" source="lP1PYulOQ80jgyvr0Ed0-23">
          <mxGeometry relative="1" as="geometry">
            <mxPoint x="660" y="510" as="targetPoint" />
          </mxGeometry>
        </mxCell>
        <mxCell id="lP1PYulOQ80jgyvr0Ed0-38" value="True" style="edgeLabel;html=1;align=center;verticalAlign=middle;resizable=0;points=[];" vertex="1" connectable="0" parent="lP1PYulOQ80jgyvr0Ed0-37">
          <mxGeometry x="-0.1208" y="3" relative="1" as="geometry">
            <mxPoint as="offset" />
          </mxGeometry>
        </mxCell>
        <mxCell id="lP1PYulOQ80jgyvr0Ed0-23" value="i &amp;lt; 0" style="rhombus;whiteSpace=wrap;html=1;" vertex="1" parent="1">
          <mxGeometry x="520" y="470" width="80" height="80" as="geometry" />
        </mxCell>
        <mxCell id="lP1PYulOQ80jgyvr0Ed0-27" style="edgeStyle=orthogonalEdgeStyle;rounded=0;orthogonalLoop=1;jettySize=auto;html=1;" edge="1" parent="1" source="lP1PYulOQ80jgyvr0Ed0-25" target="lP1PYulOQ80jgyvr0Ed0-28">
          <mxGeometry relative="1" as="geometry">
            <mxPoint x="300" y="510" as="targetPoint" />
          </mxGeometry>
        </mxCell>
        <mxCell id="lP1PYulOQ80jgyvr0Ed0-25" value="num - (2 ^ i)&lt;br&gt;numBinary +=&amp;nbsp; 10^ i" style="rounded=0;whiteSpace=wrap;html=1;" vertex="1" parent="1">
          <mxGeometry x="340" y="480" width="120" height="60" as="geometry" />
        </mxCell>
        <mxCell id="lP1PYulOQ80jgyvr0Ed0-30" style="edgeStyle=orthogonalEdgeStyle;rounded=0;orthogonalLoop=1;jettySize=auto;html=1;exitX=0.5;exitY=0;exitDx=0;exitDy=0;entryX=0.5;entryY=0;entryDx=0;entryDy=0;" edge="1" parent="1" source="lP1PYulOQ80jgyvr0Ed0-28" target="lP1PYulOQ80jgyvr0Ed0-25">
          <mxGeometry relative="1" as="geometry">
            <mxPoint x="390" y="430" as="targetPoint" />
          </mxGeometry>
        </mxCell>
        <mxCell id="lP1PYulOQ80jgyvr0Ed0-31" value="True" style="edgeLabel;html=1;align=center;verticalAlign=middle;resizable=0;points=[];" vertex="1" connectable="0" parent="lP1PYulOQ80jgyvr0Ed0-30">
          <mxGeometry x="-0.1935" y="2" relative="1" as="geometry">
            <mxPoint as="offset" />
          </mxGeometry>
        </mxCell>
        <mxCell id="lP1PYulOQ80jgyvr0Ed0-32" style="edgeStyle=orthogonalEdgeStyle;rounded=0;orthogonalLoop=1;jettySize=auto;html=1;" edge="1" parent="1" source="lP1PYulOQ80jgyvr0Ed0-28" target="lP1PYulOQ80jgyvr0Ed0-33">
          <mxGeometry relative="1" as="geometry">
            <mxPoint x="350" y="590" as="targetPoint" />
            <Array as="points">
              <mxPoint x="250" y="590" />
            </Array>
          </mxGeometry>
        </mxCell>
        <mxCell id="lP1PYulOQ80jgyvr0Ed0-35" value="False" style="edgeLabel;html=1;align=center;verticalAlign=middle;resizable=0;points=[];" vertex="1" connectable="0" parent="lP1PYulOQ80jgyvr0Ed0-32">
          <mxGeometry x="-0.7527" y="-3" relative="1" as="geometry">
            <mxPoint as="offset" />
          </mxGeometry>
        </mxCell>
        <mxCell id="lP1PYulOQ80jgyvr0Ed0-28" value="num &amp;gt;= (2 ^ i)" style="rhombus;whiteSpace=wrap;html=1;" vertex="1" parent="1">
          <mxGeometry x="200" y="470" width="100" height="80" as="geometry" />
        </mxCell>
        <mxCell id="lP1PYulOQ80jgyvr0Ed0-34" style="edgeStyle=orthogonalEdgeStyle;rounded=0;orthogonalLoop=1;jettySize=auto;html=1;entryX=0.5;entryY=1;entryDx=0;entryDy=0;" edge="1" parent="1" source="lP1PYulOQ80jgyvr0Ed0-33" target="lP1PYulOQ80jgyvr0Ed0-23">
          <mxGeometry relative="1" as="geometry" />
        </mxCell>
        <mxCell id="lP1PYulOQ80jgyvr0Ed0-33" value="i --" style="rounded=0;whiteSpace=wrap;html=1;" vertex="1" parent="1">
          <mxGeometry x="340" y="560" width="100" height="50" as="geometry" />
        </mxCell>
        <mxCell id="lP1PYulOQ80jgyvr0Ed0-40" style="edgeStyle=orthogonalEdgeStyle;rounded=0;orthogonalLoop=1;jettySize=auto;html=1;" edge="1" parent="1" source="lP1PYulOQ80jgyvr0Ed0-39" target="lP1PYulOQ80jgyvr0Ed0-41">
          <mxGeometry relative="1" as="geometry">
            <mxPoint x="705" y="590" as="targetPoint" />
          </mxGeometry>
        </mxCell>
        <mxCell id="lP1PYulOQ80jgyvr0Ed0-39" value="int j = 0&lt;br&gt;Convert numBinary to char array" style="rounded=0;whiteSpace=wrap;html=1;" vertex="1" parent="1">
          <mxGeometry x="660" y="430" width="150" height="100" as="geometry" />
        </mxCell>
        <mxCell id="lP1PYulOQ80jgyvr0Ed0-42" style="edgeStyle=orthogonalEdgeStyle;rounded=0;orthogonalLoop=1;jettySize=auto;html=1;exitX=0.5;exitY=1;exitDx=0;exitDy=0;" edge="1" parent="1" source="lP1PYulOQ80jgyvr0Ed0-41">
          <mxGeometry relative="1" as="geometry">
            <mxPoint x="705.272727272727" y="653.4545454545453" as="targetPoint" />
          </mxGeometry>
        </mxCell>
        <mxCell id="lP1PYulOQ80jgyvr0Ed0-51" style="edgeStyle=orthogonalEdgeStyle;rounded=0;orthogonalLoop=1;jettySize=auto;html=1;" edge="1" parent="1" source="lP1PYulOQ80jgyvr0Ed0-41">
          <mxGeometry relative="1" as="geometry">
            <mxPoint x="510" y="680" as="targetPoint" />
          </mxGeometry>
        </mxCell>
        <mxCell id="lP1PYulOQ80jgyvr0Ed0-63" value="True" style="edgeLabel;html=1;align=center;verticalAlign=middle;resizable=0;points=[];" vertex="1" connectable="0" parent="lP1PYulOQ80jgyvr0Ed0-51">
          <mxGeometry x="-0.4576" y="-1" relative="1" as="geometry">
            <mxPoint as="offset" />
          </mxGeometry>
        </mxCell>
        <mxCell id="lP1PYulOQ80jgyvr0Ed0-56" style="edgeStyle=orthogonalEdgeStyle;rounded=0;orthogonalLoop=1;jettySize=auto;html=1;exitX=1;exitY=0.5;exitDx=0;exitDy=0;entryX=0.5;entryY=0;entryDx=0;entryDy=0;" edge="1" parent="1" source="lP1PYulOQ80jgyvr0Ed0-41" target="lP1PYulOQ80jgyvr0Ed0-53">
          <mxGeometry relative="1" as="geometry" />
        </mxCell>
        <mxCell id="lP1PYulOQ80jgyvr0Ed0-64" value="False" style="edgeLabel;html=1;align=center;verticalAlign=middle;resizable=0;points=[];" vertex="1" connectable="0" parent="lP1PYulOQ80jgyvr0Ed0-56">
          <mxGeometry x="-0.0342" y="-1" relative="1" as="geometry">
            <mxPoint as="offset" />
          </mxGeometry>
        </mxCell>
        <mxCell id="lP1PYulOQ80jgyvr0Ed0-41" value="bitNum includes j" style="rhombus;whiteSpace=wrap;html=1;" vertex="1" parent="1">
          <mxGeometry x="647.5" y="570" width="115" height="107" as="geometry" />
        </mxCell>
        <mxCell id="lP1PYulOQ80jgyvr0Ed0-57" style="edgeStyle=orthogonalEdgeStyle;rounded=0;orthogonalLoop=1;jettySize=auto;html=1;" edge="1" parent="1" source="lP1PYulOQ80jgyvr0Ed0-53" target="lP1PYulOQ80jgyvr0Ed0-58">
          <mxGeometry relative="1" as="geometry">
            <mxPoint x="700" y="726.5" as="targetPoint" />
          </mxGeometry>
        </mxCell>
        <mxCell id="lP1PYulOQ80jgyvr0Ed0-60" value="False" style="edgeLabel;html=1;align=center;verticalAlign=middle;resizable=0;points=[];" vertex="1" connectable="0" parent="lP1PYulOQ80jgyvr0Ed0-57">
          <mxGeometry x="-0.164" relative="1" as="geometry">
            <mxPoint x="-3" as="offset" />
          </mxGeometry>
        </mxCell>
        <mxCell id="lP1PYulOQ80jgyvr0Ed0-68" style="edgeStyle=orthogonalEdgeStyle;rounded=0;orthogonalLoop=1;jettySize=auto;html=1;exitX=0.5;exitY=1;exitDx=0;exitDy=0;" edge="1" parent="1" source="lP1PYulOQ80jgyvr0Ed0-53" target="lP1PYulOQ80jgyvr0Ed0-69">
          <mxGeometry relative="1" as="geometry">
            <mxPoint x="783.5384615384614" y="880" as="targetPoint" />
          </mxGeometry>
        </mxCell>
        <mxCell id="lP1PYulOQ80jgyvr0Ed0-53" value="bitNum empty" style="rhombus;whiteSpace=wrap;html=1;" vertex="1" parent="1">
          <mxGeometry x="740" y="680" width="87" height="93" as="geometry" />
        </mxCell>
        <mxCell id="lP1PYulOQ80jgyvr0Ed0-67" style="edgeStyle=orthogonalEdgeStyle;rounded=0;orthogonalLoop=1;jettySize=auto;html=1;exitX=0.5;exitY=0;exitDx=0;exitDy=0;entryX=0;entryY=1;entryDx=0;entryDy=0;" edge="1" parent="1" source="lP1PYulOQ80jgyvr0Ed0-58" target="lP1PYulOQ80jgyvr0Ed0-41">
          <mxGeometry relative="1" as="geometry" />
        </mxCell>
        <mxCell id="lP1PYulOQ80jgyvr0Ed0-58" value="j ++" style="rounded=0;whiteSpace=wrap;html=1;" vertex="1" parent="1">
          <mxGeometry x="600" y="709.75" width="80" height="33.5" as="geometry" />
        </mxCell>
        <mxCell id="lP1PYulOQ80jgyvr0Ed0-66" style="edgeStyle=orthogonalEdgeStyle;rounded=0;orthogonalLoop=1;jettySize=auto;html=1;entryX=0;entryY=0.5;entryDx=0;entryDy=0;" edge="1" parent="1" source="lP1PYulOQ80jgyvr0Ed0-65" target="lP1PYulOQ80jgyvr0Ed0-58">
          <mxGeometry relative="1" as="geometry" />
        </mxCell>
        <mxCell id="lP1PYulOQ80jgyvr0Ed0-65" value="numBinary[ j ] = ~ numBinary[ j ]&lt;br&gt;Remove j from bitNum" style="rounded=0;whiteSpace=wrap;html=1;" vertex="1" parent="1">
          <mxGeometry x="320" y="680" width="220" height="50" as="geometry" />
        </mxCell>
        <mxCell id="lP1PYulOQ80jgyvr0Ed0-70" style="edgeStyle=orthogonalEdgeStyle;rounded=0;orthogonalLoop=1;jettySize=auto;html=1;" edge="1" parent="1" source="lP1PYulOQ80jgyvr0Ed0-69" target="lP1PYulOQ80jgyvr0Ed0-71">
          <mxGeometry relative="1" as="geometry">
            <mxPoint x="530" y="860" as="targetPoint" />
          </mxGeometry>
        </mxCell>
        <mxCell id="lP1PYulOQ80jgyvr0Ed0-69" value="print numBinary" style="shape=parallelogram;perimeter=parallelogramPerimeter;whiteSpace=wrap;html=1;fixedSize=1;" vertex="1" parent="1">
          <mxGeometry x="610" y="830" width="120" height="60" as="geometry" />
        </mxCell>
        <mxCell id="lP1PYulOQ80jgyvr0Ed0-71" value="End" style="ellipse;whiteSpace=wrap;html=1;" vertex="1" parent="1">
          <mxGeometry x="430" y="820" width="120" height="80" as="geometry" />
        </mxCell>
      </root>
    </mxGraphModel>
  </diagram>
</mxfile>
